<?xml version="1.0" encoding="utf-8"?>
<!-- Generator: Adobe Illustrator 19.0.0, SVG Export Plug-In . SVG Version: 6.00 Build 0)  -->
<svg version="1.1" id="Layer_1" xmlns="http://www.w3.org/2000/svg" xmlns:xlink="http://www.w3.org/1999/xlink" x="0px" y="0px"
	 viewBox="0 0 400 400" style="enable-background:new 0 0 400 400;" xml:space="preserve">
<style type="text/css">
	.st0{fill:url(#XMLID_18_);}
	.st1{fill:url(#XMLID_19_);}
	.st2{fill:url(#XMLID_20_);}
	.st3{fill:url(#SVGID_1_);}
	.st4{fill:url(#SVGID_2_);}
	.st5{opacity:0.71;fill:url(#XMLID_21_);}
	.st6{opacity:0.71;fill:url(#XMLID_22_);}
	.st7{opacity:0.25;fill:url(#XMLID_23_);}
	.st8{fill:url(#SVGID_3_);}
	.st9{fill:url(#SVGID_4_);}
</style>
<g>
	
		<linearGradient id="XMLID_18_" gradientUnits="userSpaceOnUse" x1="-100.6239" y1="953.8332" x2="17.4178" y2="847.548" gradientTransform="matrix(0.9411 0.3381 -0.3381 0.9411 540.7039 -683.5961)">
		<stop  offset="4.242420e-002" style="stop-color:#B8913B"/>
		<stop  offset="0.2485" style="stop-color:#B07D3B"/>
		<stop  offset="0.5152" style="stop-color:#E09E4A"/>
		<stop  offset="1" style="stop-color:#AD803C"/>
	</linearGradient>
	<path id="XMLID_16_" class="st0" d="M282.8,177.5c-14.3,39.7-60.6,45.9-107,29.2c-46.4-16.7-76.9-51.7-62.6-89.6
		c11.7-30.9,57.2-41.2,103.6-24.5C263.1,109.3,294,146.4,282.8,177.5z"/>
	
		<linearGradient id="XMLID_19_" gradientUnits="userSpaceOnUse" x1="-99.3059" y1="945.1963" x2="14.462" y2="842.7591" gradientTransform="matrix(0.9411 0.3381 -0.3381 0.9411 540.7039 -683.5961)">
		<stop  offset="0" style="stop-color:#F8C85F"/>
		<stop  offset="1" style="stop-color:#F7F0B4"/>
	</linearGradient>
	<path id="XMLID_15_" class="st1" d="M282.5,173.6c-10.7,29.7-56.9,40.2-103.3,23.5c-46.4-16.7-75.3-54.2-64.7-83.9
		c10.7-29.7,56.9-40.2,103.3-23.5C264.2,106.3,293.2,143.9,282.5,173.6z"/>
	
		<linearGradient id="XMLID_20_" gradientUnits="userSpaceOnUse" x1="-97.5262" y1="945.1946" x2="16.2381" y2="842.7608" gradientTransform="matrix(0.9411 0.3381 -0.3381 0.9411 540.7039 -683.5961)">
		<stop  offset="0" style="stop-color:#FDEA6A"/>
		<stop  offset="0.1069" style="stop-color:#FEDC4A"/>
		<stop  offset="0.1818" style="stop-color:#FFD538"/>
		<stop  offset="0.4242" style="stop-color:#FCED80"/>
		<stop  offset="0.4655" style="stop-color:#FCEA7A"/>
		<stop  offset="0.5217" style="stop-color:#FBE368"/>
		<stop  offset="0.5864" style="stop-color:#FBD84C"/>
		<stop  offset="0.6571" style="stop-color:#FAC824"/>
		<stop  offset="0.6606" style="stop-color:#FAC722"/>
		<stop  offset="1" style="stop-color:#E08006"/>
	</linearGradient>
	<path id="XMLID_14_" class="st2" d="M284.2,174.1c-10.6,29.7-56.9,40.2-103.3,23.6c-46.4-16.7-75.3-54.2-64.7-83.9
		c10.6-29.7,56.9-40.2,103.3-23.5C265.9,106.9,294.8,144.5,284.2,174.1z"/>
	
		<linearGradient id="SVGID_1_" gradientUnits="userSpaceOnUse" x1="-94.1415" y1="939.2596" x2="10.673" y2="844.8842" gradientTransform="matrix(0.9411 0.3381 -0.3381 0.9411 540.7039 -683.5961)">
		<stop  offset="0" style="stop-color:#F8C85F"/>
		<stop  offset="0.5636" style="stop-color:#FFFFFF"/>
		<stop  offset="0.903" style="stop-color:#E5AE4F"/>
	</linearGradient>
	<path class="st3" d="M217.6,92.3c-42.7-15.4-85.3-5.6-95.2,21.7c-9.8,27.3,16.9,61.9,59.6,77.3c42.7,15.3,85.3,5.6,95.2-21.7
		C287,142.3,260.3,107.7,217.6,92.3z M182.7,189.6c-41.2-14.8-66.9-48.2-57.5-74.6c9.5-26.4,50.6-35.8,91.8-20.9
		c41.2,14.8,67,48.2,57.5,74.6C265,195,223.9,204.4,182.7,189.6z"/>
	
		<linearGradient id="SVGID_2_" gradientUnits="userSpaceOnUse" x1="-93.0508" y1="939.261" x2="11.7693" y2="844.8805" gradientTransform="matrix(0.9411 0.3381 -0.3381 0.9411 540.7039 -683.5961)">
		<stop  offset="4.242420e-002" style="stop-color:#B8913B"/>
		<stop  offset="0.2485" style="stop-color:#B07D3B"/>
		<stop  offset="0.5152" style="stop-color:#E09E4A"/>
		<stop  offset="1" style="stop-color:#AD803C"/>
	</linearGradient>
	<path class="st4" d="M218.6,92.7c-42.7-15.4-85.3-5.6-95.2,21.7c-9.8,27.3,16.9,61.9,59.6,77.3c42.7,15.3,85.3,5.6,95.2-21.7
		C288,142.6,261.4,108,218.6,92.7z M183.7,189.9c-41.2-14.8-67-48.2-57.5-74.6c9.5-26.4,50.6-35.8,91.8-20.9
		c41.2,14.8,67,48.2,57.5,74.6C266,195.4,224.9,204.8,183.7,189.9z"/>
	
		<radialGradient id="XMLID_21_" cx="-210.8194" cy="-1532.0079" r="50.5038" gradientTransform="matrix(-0.5086 -0.3849 0.3764 -0.2431 708.8554 -278.5638)" gradientUnits="userSpaceOnUse">
		<stop  offset="0" style="stop-color:#FFFFFF"/>
		<stop  offset="8.769685e-002" style="stop-color:#D8D7D7"/>
		<stop  offset="0.2089" style="stop-color:#A8A7A7"/>
		<stop  offset="0.3336" style="stop-color:#7F7D7E"/>
		<stop  offset="0.4598" style="stop-color:#5E5B5C"/>
		<stop  offset="0.5879" style="stop-color:#444141"/>
		<stop  offset="0.7187" style="stop-color:#322E2F"/>
		<stop  offset="0.8538" style="stop-color:#272324"/>
		<stop  offset="1" style="stop-color:#231F20"/>
	</radialGradient>
	<path id="XMLID_9_" class="st5" d="M213.7,155.6c10.5-6.8,30.5-3.6,44.7,7.2c14.2,10.7,17.2,24.9,6.7,31.7
		c-10.5,6.8-30.5,3.6-44.7-7.2C206.2,176.6,203.2,162.4,213.7,155.6z"/>
	
		<radialGradient id="XMLID_22_" cx="-51.4707" cy="-1462.0684" r="16.8574" gradientTransform="matrix(-0.5242 -0.3967 0.3764 -0.2431 712.6568 -275.6389)" gradientUnits="userSpaceOnUse">
		<stop  offset="0" style="stop-color:#FFFFFF"/>
		<stop  offset="8.769685e-002" style="stop-color:#D8D7D7"/>
		<stop  offset="0.2089" style="stop-color:#A8A7A7"/>
		<stop  offset="0.3336" style="stop-color:#7F7D7E"/>
		<stop  offset="0.4598" style="stop-color:#5E5B5C"/>
		<stop  offset="0.5879" style="stop-color:#444141"/>
		<stop  offset="0.7187" style="stop-color:#322E2F"/>
		<stop  offset="0.8538" style="stop-color:#272324"/>
		<stop  offset="1" style="stop-color:#231F20"/>
	</radialGradient>
	<path id="XMLID_8_" class="st6" d="M180.5,93.5c3.5-2.3,10.3-1.1,15.2,2.6c4.9,3.7,6,8.5,2.5,10.8c-3.5,2.3-10.3,1.1-15.2-2.6
		C178.1,100.6,177,95.8,180.5,93.5z"/>
	
		<radialGradient id="XMLID_23_" cx="58.1624" cy="-273.2008" r="50.6678" gradientTransform="matrix(-1.519889e-002 0.6149 -2.702 -6.680620e-002 -537.3137 232.8784)" gradientUnits="userSpaceOnUse">
		<stop  offset="6.451610e-002" style="stop-color:#56585A"/>
		<stop  offset="0.4409" style="stop-color:#BEC0C2"/>
		<stop  offset="0.5001" style="stop-color:#D0D2D3"/>
		<stop  offset="0.5902" style="stop-color:#E5E6E7"/>
		<stop  offset="0.6914" style="stop-color:#F4F4F4"/>
		<stop  offset="0.8116" style="stop-color:#FCFCFD"/>
		<stop  offset="1" style="stop-color:#FFFFFF"/>
	</radialGradient>
	<path id="XMLID_7_" class="st7" d="M199.2,318.1c-75.6-1.9-136.6-17.3-136.1-34.5c0.4-17.2,62.1-29.6,137.7-27.8
		c75.6,1.9,136.6,17.3,136.1,34.5C336.5,307.5,274.8,319.9,199.2,318.1z"/>
	
		<linearGradient id="SVGID_3_" gradientUnits="userSpaceOnUse" x1="561.1249" y1="728.6876" x2="615.4124" y2="728.6876" gradientTransform="matrix(0.7536 -0.6573 0.6573 0.7536 -723.0879 -21.5612)">
		<stop  offset="4.242420e-002" style="stop-color:#B8913B"/>
		<stop  offset="0.2485" style="stop-color:#B07D3B"/>
		<stop  offset="0.5152" style="stop-color:#E09E4A"/>
		<stop  offset="1" style="stop-color:#AD803C"/>
	</linearGradient>
	<path class="st8" d="M211.4,128.8c0,0,2.7-5.9-4.4-10.9c-6.1-4.4-14.9-1.9-20.9,1.2l-8-7.5l-5.6,3.4l7.9,7.5
		c-1.1,0.7-2.4,1.5-3.8,2.4l-8-7.6l-5.8,3.5l8,7.7c-6.1,3.9-12,7.5-12,7.5l5.3,5.2c0,0,2.5-1.6,4.5-2.9c2-1.3,3.5-1.4,4.9-0.1
		c1.4,1.3,21.4,20.7,23.4,22.6c2,1.9,1.6,3.3,0.4,4.2c-1.2,0.9-4.5,3.3-4.5,3.3l5.6,5.8c0,0,4.9-3.7,11.2-8.4l9.1,8.7l5.6-4.4
		l-9-8.6c1.2-0.9,2.4-1.8,3.7-2.8l9,8.5l5.3-4.2l-8.9-8.3c0.4-0.3,0.8-0.6,1.2-0.9c10.7-8,8.8-15.4,1.6-21.9
		C220.1,125.5,211.4,128.8,211.4,128.8z M182.2,130.1c0.6-0.4,2-1.3,4.1-2.6c2.8-1.8,8.6-4.9,12.7-1.1c3.8,3.5,2.3,6.7,0.6,8.2
		l-7.4,5L182.2,130.1z M215.1,151.1c-3.9,2.8-5.4,4-6.1,4.4l-11.4-10.8l4.4-3c0,0,1.1-0.8,2.8-1.9c1.6-1.1,8.1-4.8,12.2-0.9
		C221.2,142.8,220.8,146.9,215.1,151.1z"/>
	
		<linearGradient id="SVGID_4_" gradientUnits="userSpaceOnUse" x1="564.5876" y1="727.6829" x2="618.8751" y2="727.6829" gradientTransform="matrix(0.7536 -0.6573 0.6573 0.7536 -723.0879 -21.5612)">
		<stop  offset="0" style="stop-color:#FDEA6A"/>
		<stop  offset="0.1687" style="stop-color:#FEDC4A"/>
		<stop  offset="0.2869" style="stop-color:#FFD538"/>
		<stop  offset="0.6639" style="stop-color:#FAC722"/>
		<stop  offset="1" style="stop-color:#E08006"/>
	</linearGradient>
	<path class="st9" d="M213.4,125.8c0,0,2.7-5.9-4.4-10.9c-6.1-4.4-14.9-1.9-20.9,1.2l-8-7.5l-5.6,3.4l7.9,7.5
		c-1.1,0.7-2.4,1.5-3.8,2.4l-8-7.6l-5.8,3.5l8,7.7c-6.1,3.9-12,7.5-12,7.5l5.3,5.2c0,0,2.5-1.6,4.5-2.9c2-1.3,3.5-1.4,4.9-0.1
		c1.4,1.3,21.4,20.7,23.4,22.6c2,1.9,1.6,3.3,0.4,4.2c-1.2,0.9-4.5,3.3-4.5,3.3l5.6,5.8c0,0,4.9-3.7,11.2-8.4l9.1,8.7l5.6-4.4
		l-9-8.6c1.2-0.9,2.4-1.8,3.7-2.8l9,8.5l5.3-4.2l-8.9-8.3c0.4-0.3,0.8-0.6,1.2-0.9c10.7-8,8.8-15.4,1.6-21.9
		C222,122.5,213.4,125.8,213.4,125.8z M184.2,127.1c0.6-0.4,2-1.3,4.1-2.6c2.8-1.8,8.6-4.9,12.7-1.1c3.8,3.5,2.3,6.7,0.6,8.2l-7.4,5
		L184.2,127.1z M217,148.1c-3.9,2.8-5.4,4-6.1,4.4l-11.4-10.8l4.4-3c0,0,1.1-0.8,2.8-1.9c1.6-1.1,8.1-4.8,12.2-0.9
		C223.2,139.8,222.7,143.9,217,148.1z"/>
</g>
</svg>
