<?xml version="1.0" encoding="utf-8"?>
<!-- Generator: Adobe Illustrator 19.0.0, SVG Export Plug-In . SVG Version: 6.00 Build 0)  -->
<svg version="1.1" id="Layer_1" xmlns="http://www.w3.org/2000/svg" xmlns:xlink="http://www.w3.org/1999/xlink" x="0px" y="0px"
	 viewBox="0 0 400 400" style="enable-background:new 0 0 400 400;" xml:space="preserve">
<style type="text/css">
	.st0{fill:#779B3E;}
	.st1{opacity:0.25;fill:url(#XMLID_29_);}
	.st2{fill:#7EA840;}
	.st3{fill:#FFDD15;}
	.st4{fill:url(#XMLID_30_);}
	.st5{fill:url(#XMLID_31_);}
	.st6{fill:url(#XMLID_32_);}
	.st7{fill:url(#XMLID_33_);}
	.st8{fill:url(#XMLID_34_);}
	.st9{fill:#FFFFFF;}
</style>
<g>
	<g>
		<polygon id="XMLID_27_" class="st0" points="195.9,125.9 90.6,125.9 115.6,190.2 195.9,190.2 276.1,190.2 301.2,125.9 		"/>
	</g>
	
		<radialGradient id="XMLID_29_" cx="126.0632" cy="-287.7091" r="55.3591" gradientTransform="matrix(-2.555253e-003 0.6151 -3.5673 -1.484630e-002 -826.0272 210.9052)" gradientUnits="userSpaceOnUse">
		<stop  offset="6.451610e-002" style="stop-color:#56585A"/>
		<stop  offset="0.4409" style="stop-color:#BEC0C2"/>
		<stop  offset="0.5001" style="stop-color:#D0D2D3"/>
		<stop  offset="0.5902" style="stop-color:#E5E6E7"/>
		<stop  offset="0.6914" style="stop-color:#F4F4F4"/>
		<stop  offset="0.8116" style="stop-color:#FCFCFD"/>
		<stop  offset="1" style="stop-color:#FFFFFF"/>
	</radialGradient>
	<path id="XMLID_26_" class="st1" d="M199.9,326.8C90.8,326.3,2.4,310.7,2.5,291.9c0.1-18.8,88.6-33.7,197.6-33.2
		c109.1,0.5,197.4,16.1,197.3,34.9C397.4,312.4,308.9,327.2,199.9,326.8z"/>
	<g>
		<g>
			<path id="XMLID_25_" class="st2" d="M293,281.5H96.4c-2.7,0-4.8-2.1-4.8-4.8v-78.3c0-2.7,2.1-4.8,4.8-4.8H293
				c2.7,0,4.8,2.1,4.8,4.8v78.3C297.8,279.4,295.7,281.5,293,281.5z"/>
		</g>
		<g>
			<path class="st3" d="M293,286.1H96.4c-5.2,0-9.4-4.2-9.4-9.4v-78.3c0-5.2,4.2-9.4,9.4-9.4H293c5.2,0,9.4,4.2,9.4,9.4v78.3
				C302.4,281.9,298.2,286.1,293,286.1z M96.4,198.2c-0.1,0-0.2,0.1-0.2,0.2v78.3c0,0.1,0.1,0.2,0.2,0.2H293c0.1,0,0.2-0.1,0.2-0.2
				v-78.3c0-0.1-0.1-0.2-0.2-0.2H96.4z"/>
		</g>
	</g>
	<g>
		<path class="st3" d="M167.4,193.5v53.6c0,6.8,5.5,12.2,12.2,12.2h31.7c6.8,0,12.2-5.5,12.2-12.2v-53.6H167.4z M198.4,228.9v15.3
			h-5.5v-15.1c-3.3-1-5.7-4.1-5.7-7.7c0-4.5,3.6-8.1,8.1-8.1c4.5,0,8.1,3.6,8.1,8.1C203.4,224.8,201.3,227.7,198.4,228.9z"/>
	</g>
	<g>
		<rect id="XMLID_20_" x="167" y="96.8" class="st3" width="56.6" height="16.7"/>
	</g>
	<g>
		<path id="XMLID_19_" class="st3" d="M248.4,73.2h-7c8,2.9,31.9,13.7,32.9,40.3h-52.7h-51.7h-52.7c1-26.6,24.8-37.4,32.9-40.3h-6.7
			c-29.1,0-52.7,23.6-52.7,52.7v0h210.6v0C301.2,96.8,277.5,73.2,248.4,73.2z"/>
	</g>
	<g>
		<path id="XMLID_18_" class="st2" d="M241.6,73.2h-91.4c-8,2.9-31.9,13.7-32.9,40.3H170h2.2v-0.2h0v-3.2c0-3.9,3.2-7.1,7.1-7.1h33
			c3.9,0,7.1,3.2,7.1,7.1v3.2h0v0.2h2.3h52.7C273.4,86.9,249.6,76.1,241.6,73.2z"/>
	</g>
	<g>
		<g>
			<linearGradient id="XMLID_30_" gradientUnits="userSpaceOnUse" x1="151.7947" y1="151.6181" x2="192.4839" y2="151.6181">
				<stop  offset="0" style="stop-color:#FDEA6A"/>
				<stop  offset="0.1069" style="stop-color:#FEDC4A"/>
				<stop  offset="0.1818" style="stop-color:#FFD538"/>
				<stop  offset="0.4242" style="stop-color:#FCED80"/>
				<stop  offset="0.4655" style="stop-color:#FCEA7A"/>
				<stop  offset="0.5217" style="stop-color:#FBE368"/>
				<stop  offset="0.5864" style="stop-color:#FBD84C"/>
				<stop  offset="0.6571" style="stop-color:#FAC824"/>
				<stop  offset="0.6606" style="stop-color:#FAC722"/>
				<stop  offset="1" style="stop-color:#E08006"/>
			</linearGradient>
			<path id="XMLID_17_" class="st4" d="M183.8,140.8h-23.3c-0.6,0-1.1,0.4-1.3,0.9l-7.3,18.8c-0.4,0.9,0.3,1.9,1.3,1.9h37.9
				c1,0,1.6-1,1.3-1.9l-7.3-18.8C184.9,141.2,184.4,140.8,183.8,140.8z"/>
		</g>
		<g>
			<linearGradient id="XMLID_31_" gradientUnits="userSpaceOnUse" x1="194.5441" y1="151.6181" x2="235.2333" y2="151.6181">
				<stop  offset="0" style="stop-color:#FDEA6A"/>
				<stop  offset="0.1069" style="stop-color:#FEDC4A"/>
				<stop  offset="0.1818" style="stop-color:#FFD538"/>
				<stop  offset="0.4242" style="stop-color:#FCED80"/>
				<stop  offset="0.4655" style="stop-color:#FCEA7A"/>
				<stop  offset="0.5217" style="stop-color:#FBE368"/>
				<stop  offset="0.5864" style="stop-color:#FBD84C"/>
				<stop  offset="0.6571" style="stop-color:#FAC824"/>
				<stop  offset="0.6606" style="stop-color:#FAC722"/>
				<stop  offset="1" style="stop-color:#E08006"/>
			</linearGradient>
			<path id="XMLID_16_" class="st5" d="M226.5,140.8h-23.3c-0.6,0-1.1,0.4-1.3,0.9l-7.3,18.8c-0.4,0.9,0.3,1.9,1.3,1.9h37.9
				c1,0,1.6-1,1.3-1.9l-7.3-18.8C227.6,141.2,227.1,140.8,226.5,140.8z"/>
		</g>
		<g>
			<linearGradient id="XMLID_32_" gradientUnits="userSpaceOnUse" x1="130.3159" y1="174.9283" x2="171.0051" y2="174.9283">
				<stop  offset="0" style="stop-color:#FDEA6A"/>
				<stop  offset="0.1069" style="stop-color:#FEDC4A"/>
				<stop  offset="0.1818" style="stop-color:#FFD538"/>
				<stop  offset="0.4242" style="stop-color:#FCED80"/>
				<stop  offset="0.4655" style="stop-color:#FCEA7A"/>
				<stop  offset="0.5217" style="stop-color:#FBE368"/>
				<stop  offset="0.5864" style="stop-color:#FBD84C"/>
				<stop  offset="0.6571" style="stop-color:#FAC824"/>
				<stop  offset="0.6606" style="stop-color:#FAC722"/>
				<stop  offset="1" style="stop-color:#E08006"/>
			</linearGradient>
			<path id="XMLID_15_" class="st6" d="M162.3,164.1H139c-0.6,0-1.1,0.4-1.3,0.9l-7.3,18.8c-0.4,0.9,0.3,1.9,1.3,1.9h37.9
				c1,0,1.6-1,1.3-1.9l-7.3-18.8C163.4,164.5,162.9,164.1,162.3,164.1z"/>
		</g>
		<g>
			<linearGradient id="XMLID_33_" gradientUnits="userSpaceOnUse" x1="173.0653" y1="174.9283" x2="213.7545" y2="174.9283">
				<stop  offset="0" style="stop-color:#FDEA6A"/>
				<stop  offset="0.1069" style="stop-color:#FEDC4A"/>
				<stop  offset="0.1818" style="stop-color:#FFD538"/>
				<stop  offset="0.4242" style="stop-color:#FCED80"/>
				<stop  offset="0.4655" style="stop-color:#FCEA7A"/>
				<stop  offset="0.5217" style="stop-color:#FBE368"/>
				<stop  offset="0.5864" style="stop-color:#FBD84C"/>
				<stop  offset="0.6571" style="stop-color:#FAC824"/>
				<stop  offset="0.6606" style="stop-color:#FAC722"/>
				<stop  offset="1" style="stop-color:#E08006"/>
			</linearGradient>
			<path id="XMLID_14_" class="st7" d="M205.1,164.1h-23.3c-0.6,0-1.1,0.4-1.3,0.9l-7.3,18.8c-0.4,0.9,0.3,1.9,1.3,1.9h37.9
				c1,0,1.6-1,1.3-1.9l-7.3-18.8C206.1,164.5,205.6,164.1,205.1,164.1z"/>
		</g>
		<g>
			<linearGradient id="XMLID_34_" gradientUnits="userSpaceOnUse" x1="215.8719" y1="174.9283" x2="256.5611" y2="174.9283">
				<stop  offset="0" style="stop-color:#FDEA6A"/>
				<stop  offset="0.1069" style="stop-color:#FEDC4A"/>
				<stop  offset="0.1818" style="stop-color:#FFD538"/>
				<stop  offset="0.4242" style="stop-color:#FCED80"/>
				<stop  offset="0.4655" style="stop-color:#FCEA7A"/>
				<stop  offset="0.5217" style="stop-color:#FBE368"/>
				<stop  offset="0.5864" style="stop-color:#FBD84C"/>
				<stop  offset="0.6571" style="stop-color:#FAC824"/>
				<stop  offset="0.6606" style="stop-color:#FAC722"/>
				<stop  offset="1" style="stop-color:#E08006"/>
			</linearGradient>
			<path id="XMLID_13_" class="st8" d="M247.9,164.1h-23.3c-0.6,0-1.1,0.4-1.3,0.9l-7.3,18.8c-0.4,0.9,0.3,1.9,1.3,1.9h37.9
				c1,0,1.6-1,1.3-1.9l-7.3-18.8C249,164.5,248.4,164.1,247.9,164.1z"/>
		</g>
	</g>
	<g>
		<path id="XMLID_12_" class="st9" d="M264,147c-2.9-0.4-5.3-2.7-5.7-5.7c0-0.1-0.1-0.1-0.1,0c-0.4,2.9-2.7,5.3-5.7,5.7
			c-0.1,0-0.1,0.1,0,0.1c2.9,0.4,5.3,2.7,5.7,5.7c0,0.1,0.1,0.1,0.1,0c0.4-2.9,2.7-5.3,5.7-5.7C264.1,147.1,264.1,147,264,147z"/>
	</g>
	<g>
		<path id="XMLID_11_" class="st9" d="M137.3,149.9c-2.8-1.9-4.1-5.5-3.1-8.7c0-0.1-0.1-0.2-0.1-0.1c-1.9,2.8-5.5,4.1-8.7,3.1
			c-0.1,0-0.2,0.1-0.1,0.1c2.8,1.9,4.1,5.5,3.1,8.7c0,0.1,0.1,0.2,0.1,0.1c1.9-2.8,5.5-4.1,8.7-3.1
			C137.3,150,137.4,149.9,137.3,149.9z"/>
	</g>
	<g>
		<path class="st9" d="M120.5,160.8l-0.1-0.4c-0.3-1.4-1.6-2.4-3-2.5l-0.4,0l-0.1-0.8l0.4-0.1c1.4-0.3,2.4-1.6,2.5-3l0-0.4l0.8-0.1
			l0.1,0.4c0.3,1.4,1.6,2.4,3,2.5l0.4,0l0.1,0.8l-0.4,0.1c-1.4,0.3-2.4,1.6-2.5,3l0,0.4L120.5,160.8z M118.7,157.3
			c0.8,0.3,1.5,0.9,2,1.7c0.3-0.8,0.9-1.5,1.6-2c-0.8-0.3-1.5-0.9-2-1.6C120,156.1,119.5,156.8,118.7,157.3z"/>
	</g>
	<g>
		<path class="st9" d="M246.5,143.8l-0.1-0.4c-0.2-0.9-1.1-1.6-2-1.7l-0.4,0l-0.1-0.8l0.4-0.1c0.9-0.2,1.6-1.1,1.7-2l0-0.4l0.8-0.1
			l0.1,0.4c0.2,0.9,1.1,1.6,2,1.7l0.4,0l0.1,0.8l-0.4,0.1c-0.9,0.2-1.6,1.1-1.7,2l0,0.4L246.5,143.8z M245.6,141.1
			c0.4,0.2,0.8,0.5,1.1,0.9c0.2-0.4,0.5-0.8,0.9-1.1c-0.4-0.2-0.8-0.5-1.1-0.9C246.3,140.5,246,140.8,245.6,141.1z"/>
	</g>
	<g>
		<path class="st9" d="M271.7,157.5c0,0-0.1,0-0.1,0l0,0c-0.9,0-1.6-0.4-2.2-1c-0.6-0.6-0.9-1.4-0.8-2.3c0-0.9,0.4-1.6,1-2.2
			c0.6-0.6,1.4-0.9,2.3-0.8c1.8,0.1,3.1,1.5,3.1,3.3c0,0.9-0.4,1.6-1,2.2C273.3,157.2,272.5,157.5,271.7,157.5z M271.7,152.1
			c-0.6,0-1.1,0.2-1.5,0.6c-0.4,0.4-0.7,1-0.7,1.6c0,1.3,0.9,2.3,2.2,2.4h0c0.6,0,1.2-0.2,1.6-0.6c0.4-0.4,0.7-1,0.7-1.6
			C274,153.2,273.1,152.1,271.7,152.1C271.8,152.1,271.7,152.1,271.7,152.1z"/>
	</g>
	<g>
		<path class="st9" d="M127.8,138.4c0,0-0.1,0-0.1,0c-0.9,0-1.6-0.4-2.2-1c-0.6-0.6-0.9-1.4-0.8-2.3c0-0.8,0.4-1.6,1-2.2
			c0.6-0.6,1.4-0.9,2.3-0.8c0.9,0,1.6,0.4,2.2,1c0.6,0.6,0.9,1.4,0.8,2.3C130.9,137,129.5,138.4,127.8,138.4z M127.8,132.9
			c-1.2,0-2.2,1-2.3,2.2c0,0.6,0.2,1.2,0.6,1.6c0.4,0.4,1,0.7,1.6,0.7c1.3,0.1,2.3-0.9,2.4-2.2c0-0.6-0.2-1.2-0.6-1.6
			C129.1,133.2,128.5,132.9,127.8,132.9C127.9,132.9,127.8,132.9,127.8,132.9z"/>
	</g>
	<g>
		<g>
			<path class="st3" d="M248.5,152l0.4,0.9c0.3,0.6,0.9,0.8,1.5,0.6l0.8-0.4l0.4,0.8l-0.8,0.4c-0.6,0.3-0.8,0.9-0.6,1.5l0.4,0.9
				l-0.9,0.4l-0.4-0.9c-0.3-0.6-0.9-0.8-1.5-0.6L247,156l-0.4-0.8l0.8-0.4c0.6-0.3,0.8-0.9,0.6-1.5l-0.4-0.9L248.5,152z"/>
		</g>
	</g>
	<g>
		<g>
			<path class="st3" d="M142.4,144.5l0.4,0.9c0.3,0.6,0.9,0.8,1.5,0.6l0.8-0.4l0.4,0.8l-0.8,0.4c-0.6,0.3-0.8,0.9-0.6,1.5l0.4,0.9
				l-0.9,0.4l-0.4-0.9c-0.3-0.6-0.9-0.8-1.5-0.6l-0.8,0.4l-0.4-0.8l0.8-0.4c0.6-0.3,0.8-0.9,0.6-1.5l-0.4-0.9L142.4,144.5z"/>
		</g>
	</g>
</g>
</svg>
