<?xml version="1.0" encoding="utf-8"?>
<!-- Generator: Adobe Illustrator 19.0.0, SVG Export Plug-In . SVG Version: 6.00 Build 0)  -->
<svg version="1.1" id="Layer_1" xmlns="http://www.w3.org/2000/svg" xmlns:xlink="http://www.w3.org/1999/xlink" x="0px" y="0px"
	 viewBox="0 0 400 400" style="enable-background:new 0 0 400 400;" xml:space="preserve">
<style type="text/css">
	.st0{opacity:0.5;fill:url(#XMLID_52_);}
	.st1{fill:#779B3E;}
	.st2{fill:#7EA840;}
	.st3{fill:#FFFFFF;}
	.st4{fill:url(#XMLID_53_);}
	.st5{opacity:0.5;fill:url(#XMLID_54_);}
</style>
<g>
	
		<radialGradient id="XMLID_52_" cx="68.3851" cy="-311.3997" r="52.805" gradientTransform="matrix(2.570000e-002 0.6146 -2.7005 0.1129 -595.9459 244.0455)" gradientUnits="userSpaceOnUse">
		<stop  offset="6.451610e-002" style="stop-color:#56585A"/>
		<stop  offset="0.4409" style="stop-color:#BEC0C2"/>
		<stop  offset="0.5001" style="stop-color:#D0D2D3"/>
		<stop  offset="0.5902" style="stop-color:#E5E6E7"/>
		<stop  offset="0.6914" style="stop-color:#F4F4F4"/>
		<stop  offset="0.8116" style="stop-color:#FCFCFD"/>
		<stop  offset="1" style="stop-color:#FFFFFF"/>
	</radialGradient>
	<path id="XMLID_50_" class="st0" d="M248.1,283.4c-78.8,3.3-143.2-8.6-144-26.5c-0.7-17.9,62.5-35.1,141.2-38.4
		c78.8-3.3,143.2,8.6,144,26.5C390.1,262.9,326.9,280.1,248.1,283.4z"/>
	<g>
		<path id="XMLID_49_" class="st1" d="M323.2,132.7c-7.9-11.6-25.7-23-39.6-25.2l-35.2-5.7c-13.9-2.2-30.2,6.3-36.2,19L197,152.7
			c-6,12.7-7,33.8-2,47l12.3,32.7c4.9,13.2,20.5,23.1,34.5,22l35.5-2.6c14-1,32.7-10.8,41.6-21.7l22.3-27.4
			c8.9-10.9,9.7-29.3,1.7-41L323.2,132.7z"/>
		<path id="XMLID_48_" class="st2" d="M198.5,199.8c-4.9-13.2-4-34.3,2-47l11.7-24.5c6.1-12.7,16.3-12.9,22.7-0.4l14.5,28
			c6.5,12.5,5.6,32.4-1.9,44.3l-17,27c-7.5,11.9-17.7,10.9-22.6-2.3L198.5,199.8z"/>
		<path id="XMLID_47_" class="st2" d="M240.8,124.8c-6.5-12.5-0.4-20.9,13.5-18.6l27.3,4.4c13.9,2.2,31.7,13.6,39.6,25.2l15.1,22.3
			c7.9,11.6,2.9,20.6-11.2,20l-32.6-1.4c-14-0.6-30.8-11.3-37.3-23.8L240.8,124.8z"/>
		<path id="XMLID_46_" class="st2" d="M253.2,203.8c7.5-11.9,25.1-21.1,39.2-20.5l32.6,1.4c14,0.6,18.3,10,9.4,20.9l-17.2,21.2
			c-8.9,10.9-27.6,20.7-41.6,21.7l-27.6,2.1c-14,1-19.4-7.8-11.9-19.7L253.2,203.8z"/>
		<g>
			<g>
				<g>
					<g>
						<g>
							<path id="XMLID_45_" class="st3" d="M312.5,155.7c-2.5-3.7-1.4-6.5,2.2-6.6c3.5,0,8.3,2.6,10.9,6.1c2.7,3.6,2.1,6.7-1.5,7
								C320.4,162.5,315.1,159.5,312.5,155.7z"/>
							<path id="XMLID_44_" class="st3" d="M313.1,153.4c-0.5-0.7-0.3-1.3,0.5-1.4c0.8,0,1.8,0.6,2.3,1.3c0.5,0.7,0.3,1.4-0.4,1.4
								C314.7,154.7,313.6,154.2,313.1,153.4z"/>
						</g>
						<g>
							<path id="XMLID_43_" class="st3" d="M275.9,157.1c-2-4.3,0.4-7.6,5.3-7.7c4.7,0,10.1,3,12.4,7c2.4,4.2,0.6,7.9-4.3,8.3
								C284.2,165.1,278.1,161.6,275.9,157.1z"/>
							<path id="XMLID_42_" class="st3" d="M277.5,154.4c-0.4-0.9,0.1-1.6,1.1-1.6c1,0,2.2,0.6,2.6,1.5c0.4,0.9,0,1.6-1.1,1.6
								C279.2,156,278,155.3,277.5,154.4z"/>
						</g>
						<g>
							<path id="XMLID_41_" class="st3" d="M299.4,136.4c-2-2.9-0.7-5,2.8-4.8c3.4,0.2,7.6,2.6,9.7,5.4c2.2,2.9,1.3,5.2-2.2,5.2
								C306.1,142,301.4,139.4,299.4,136.4z"/>
							<path id="XMLID_40_" class="st3" d="M300.2,134.7c-0.4-0.6-0.1-1,0.6-1c0.7,0,1.6,0.5,2,1.1c0.4,0.6,0.2,1-0.6,1
								C301.5,135.8,300.6,135.3,300.2,134.7z"/>
						</g>
						<g>
							<path id="XMLID_39_" class="st3" d="M265.2,134.8c-1.6-3.3,0.9-5.7,5.4-5.4c4.3,0.3,9.2,3,11,6.1c1.9,3.3-0.1,5.9-4.7,5.8
								C272.2,141.2,266.9,138.2,265.2,134.8z"/>
							<path id="XMLID_38_" class="st3" d="M266.9,132.9c-0.3-0.7,0.2-1.2,1.1-1.1c0.9,0.1,2,0.6,2.3,1.3c0.3,0.7-0.1,1.2-1.1,1.1
								C268.3,134.1,267.2,133.5,266.9,132.9z"/>
						</g>
						<g>
							<path id="XMLID_37_" class="st3" d="M288.7,120.7c-1.6-2.4-0.2-4,3.1-3.5c3.2,0.4,7.1,2.5,8.8,4.9c1.8,2.4,0.7,4.1-2.6,3.8
								C294.6,125.5,290.4,123.2,288.7,120.7z"/>
							<path id="XMLID_36_" class="st3" d="M289.6,119.5c-0.3-0.5,0-0.8,0.6-0.7c0.7,0.1,1.5,0.5,1.9,1c0.3,0.5,0.1,0.8-0.6,0.7
								C290.8,120.4,290,119.9,289.6,119.5z"/>
						</g>
						<g>
							<path id="XMLID_35_" class="st3" d="M256.8,117.2c-1.3-2.7,1.2-4.3,5.4-3.8c4,0.5,8.4,2.9,9.8,5.4c1.5,2.6-0.5,4.5-4.8,4.1
								C262.9,122.6,258.2,119.9,256.8,117.2z"/>
							<path id="XMLID_34_" class="st3" d="M258.5,115.9c-0.3-0.5,0.2-0.9,1.1-0.8c0.9,0.1,1.8,0.6,2.1,1.1c0.3,0.5-0.2,0.9-1.1,0.8
								C259.7,116.9,258.8,116.4,258.5,115.9z"/>
						</g>
					</g>
				</g>
			</g>
		</g>
		<g>
			<g>
				<g>
					<g>
						<g>
							<path id="XMLID_33_" class="st3" d="M213.9,201.9c2.2-2.8,5.3-2.1,6.8,1.7c1.6,3.9,1,9.5-1.4,12.3c-2.3,2.7-5.4,1.6-6.8-2.3
								C211.2,209.8,211.8,204.7,213.9,201.9z"/>
							<path id="XMLID_32_" class="st3" d="M216,202.3c0.5-0.6,1.1-0.4,1.4,0.4c0.3,0.8,0.2,1.9-0.3,2.4c-0.5,0.6-1.1,0.4-1.4-0.4
								C215.5,204,215.6,202.9,216,202.3z"/>
						</g>
						<g>
							<path id="XMLID_31_" class="st3" d="M201.5,169.9c1.8-2.8,4.2-2.8,5.4,0.1c1.2,3,0.7,7.8-1.3,10.6c-1.9,2.7-4.3,2.4-5.4-0.6
								C199.2,177.1,199.7,172.6,201.5,169.9z"/>
							<path id="XMLID_30_" class="st3" d="M203.2,169.8c0.4-0.6,0.9-0.6,1.1,0c0.2,0.6,0.1,1.6-0.3,2.1c-0.4,0.6-0.9,0.6-1.1,0
								C202.7,171.3,202.8,170.4,203.2,169.8z"/>
						</g>
						<g>
							<path id="XMLID_29_" class="st3" d="M217.6,170.2c2.2-3.2,5.4-3.2,7,0.1c1.7,3.4,1,8.9-1.4,12.1c-2.4,3.1-5.5,2.7-6.9-0.7
								C214.8,178.4,215.4,173.3,217.6,170.2z"/>
							<path id="XMLID_28_" class="st3" d="M219.8,170.1c0.5-0.7,1.1-0.6,1.4,0c0.3,0.7,0.2,1.8-0.3,2.4c-0.5,0.7-1.1,0.6-1.4-0.1
								C219.2,171.8,219.3,170.8,219.8,170.1z"/>
						</g>
						<g>
							<path id="XMLID_27_" class="st3" d="M221.3,138.9c2.3-3.5,5.5-4.2,7.1-1.4c1.7,2.9,1.1,8.3-1.4,11.9
								c-2.4,3.5-5.6,3.8-7.1,0.8C218.5,147.4,219.1,142.4,221.3,138.9z"/>
							<path id="XMLID_26_" class="st3" d="M223.5,138.3c0.5-0.7,1.1-0.9,1.4-0.3c0.3,0.6,0.2,1.6-0.3,2.4c-0.5,0.7-1.1,0.8-1.4,0.3
								C222.9,140.1,223,139,223.5,138.3z"/>
						</g>
						<g>
							<path id="XMLID_25_" class="st3" d="M238.6,170.7c2.9-3.6,7.1-3.7,9.3,0.2c2.3,4,1.6,10.4-1.6,14c-3.1,3.5-7.2,3-9.2-1
								C235.1,180,235.8,174.2,238.6,170.7z"/>
							<path id="XMLID_24_" class="st3" d="M241.5,170.5c0.6-0.8,1.5-0.7,1.9,0c0.4,0.8,0.3,2-0.3,2.8c-0.6,0.8-1.5,0.7-1.9-0.1
								C240.8,172.5,240.9,171.3,241.5,170.5z"/>
						</g>
					</g>
				</g>
			</g>
		</g>
		<g>
			<g>
				<g>
					<g>
						<g>
							<path id="XMLID_23_" class="st3" d="M254.3,230.5c2.4-4.4,8.4-7.5,13.2-6.8c4.7,0.7,6.5,4.7,4,8.9c-2.4,4.1-8,7.1-12.7,6.6
								C254,238.7,251.9,234.9,254.3,230.5z"/>
							<path id="XMLID_22_" class="st3" d="M258.5,228.2c0.5-0.9,1.7-1.5,2.7-1.4c1,0.1,1.4,1,0.9,1.9c-0.5,0.9-1.7,1.5-2.7,1.4
								C258.4,230,258,229.1,258.5,228.2z"/>
						</g>
						<g>
							<path id="XMLID_21_" class="st3" d="M308.7,202.7c2.8-4.5,8.5-7.4,12.6-6.4c4,1,4.8,5.3,2,9.6c-2.8,4.2-8.1,7-12.1,6.3
								C307.1,211.3,306,207.1,308.7,202.7z"/>
							<path id="XMLID_20_" class="st3" d="M312.7,200.5c0.6-0.9,1.7-1.5,2.6-1.3c0.8,0.2,1.1,1.1,0.5,2c-0.6,0.9-1.7,1.5-2.6,1.3
								C312.4,202.3,312.2,201.4,312.7,200.5z"/>
						</g>
					</g>
				</g>
			</g>
		</g>
	</g>
	
		<radialGradient id="XMLID_53_" cx="952.5375" cy="55.2802" r="52.8041" gradientTransform="matrix(0.6097 8.160000e-002 -0.1642 1.2277 -369.906 43.783)" gradientUnits="userSpaceOnUse">
		<stop  offset="6.451610e-002" style="stop-color:#56585A"/>
		<stop  offset="0.4409" style="stop-color:#BEC0C2"/>
		<stop  offset="0.5001" style="stop-color:#D0D2D3"/>
		<stop  offset="0.5902" style="stop-color:#E5E6E7"/>
		<stop  offset="0.6914" style="stop-color:#F4F4F4"/>
		<stop  offset="0.8116" style="stop-color:#FCFCFD"/>
		<stop  offset="1" style="stop-color:#FFFFFF"/>
	</radialGradient>
	<path id="XMLID_19_" class="st4" d="M234,193.7c-4.8,35.8-23.1,62.9-40.9,60.5c-17.8-2.4-28.3-33.3-23.5-69.1
		c4.8-35.8,23.1-62.9,40.9-60.5C228.2,126.9,238.8,157.9,234,193.7z"/>
	
		<radialGradient id="XMLID_54_" cx="85.747" cy="-276.6137" r="52.8058" gradientTransform="matrix(2.570000e-002 0.6146 -2.7005 0.1129 -595.9459 244.0455)" gradientUnits="userSpaceOnUse">
		<stop  offset="6.451610e-002" style="stop-color:#56585A"/>
		<stop  offset="0.4409" style="stop-color:#BEC0C2"/>
		<stop  offset="0.5001" style="stop-color:#D0D2D3"/>
		<stop  offset="0.5902" style="stop-color:#E5E6E7"/>
		<stop  offset="0.6914" style="stop-color:#F4F4F4"/>
		<stop  offset="0.8116" style="stop-color:#FCFCFD"/>
		<stop  offset="1" style="stop-color:#FFFFFF"/>
	</radialGradient>
	<path id="XMLID_18_" class="st5" d="M154.6,298c-78.8,3.3-143.2-8.6-144-26.5c-0.7-17.9,62.5-35.1,141.2-38.4
		c78.8-3.3,143.2,8.6,144,26.5C296.6,277.5,233.4,294.7,154.6,298z"/>
	<g>
		<path id="XMLID_17_" class="st1" d="M139.9,119.2c-13.8-2.7-34.4,1.8-45.9,9.9l-29,20.7c-11.4,8.2-17,25.7-12.4,39l11.6,33.3
			c4.6,13.3,18.9,29,31.6,34.8l31.7,14.6c12.8,5.9,30.8,2,40-8.6l23.4-26.9c9.2-10.6,15.7-30.7,14.3-44.7l-3.4-35.1
			c-1.4-14-13.8-27.7-27.6-30.4L139.9,119.2z"/>
		<path id="XMLID_16_" class="st2" d="M98.5,254.6c-12.8-5.9-27-21.6-31.6-34.8L57.9,194c-4.6-13.3,2.5-20.6,15.9-16.3l30,9.7
			c13.4,4.3,26.8,19.1,29.8,32.8l6.9,31.2c3,13.7-4.9,20.2-17.7,14.3L98.5,254.6z"/>
		<path id="XMLID_15_" class="st2" d="M75.8,171.5c-13.4-4.3-15-14.6-3.5-22.7l22.5-16.1c11.4-8.2,32.1-12.6,45.9-9.9l26.4,5.2
			c13.8,2.7,16.6,12.6,6.2,22.1l-24.2,22c-10.4,9.4-29.9,13.6-43.2,9.3L75.8,171.5z"/>
		<path id="XMLID_14_" class="st2" d="M140.2,219c-3-13.7,3-32.7,13.4-42.1l24.2-22c10.4-9.4,20-5.7,21.4,8.3l2.7,27.2
			c1.4,14-5.1,34.1-14.3,44.7l-18.2,20.9c-9.2,10.6-19.3,8-22.3-5.7L140.2,219z"/>
		<g>
			<g>
				<g>
					<g>
						<g>
							<g>
								<path id="XMLID_13_" class="st3" d="M78.3,160c-3.7-1.4-3.2-4.9,0.2-7.6c3.1-2.4,8.1-3.9,11.9-3.4c4.3,0.6,6,3.5,3,6.8
									C90,159.6,82.7,161.6,78.3,160z"/>
							</g>
						</g>
					</g>
				</g>
			</g>
			<g>
				<g>
					<g>
						<g>
							<g>
								<path id="XMLID_12_" class="st3" d="M115.2,151.7c-3.7-1.4-3.2-4.9,0.2-7.6c3.1-2.4,8.1-3.9,11.9-3.4c4.2,0.6,6,3.5,3,6.8
									C126.9,151.4,119.6,153.4,115.2,151.7z"/>
							</g>
						</g>
					</g>
				</g>
			</g>
			<g>
				<g>
					<g>
						<g>
							<g>
								<path id="XMLID_11_" class="st3" d="M152.4,143.9c-3.7-1.4-3.2-4.9,0.2-7.6c3.1-2.4,8.1-3.9,11.9-3.4c4.2,0.6,6,3.5,3,6.8
									C164.1,143.6,156.8,145.6,152.4,143.9z"/>
							</g>
						</g>
					</g>
				</g>
			</g>
		</g>
		<g>
			<g>
				<g>
					<g>
						<g>
							<path id="XMLID_10_" class="st3" d="M88.3,219.7c-1-4.7,1.3-8,5.8-6.8c5,1.3,9.8,7.4,10.1,12.9c0.3,4.9-3.2,6.7-7.5,4.7
								C92.8,228.6,89.3,224,88.3,219.7z"/>
							<path id="XMLID_9_" class="st3" d="M89.8,217.6c-0.2-1,0.3-1.6,1.1-1.4c0.9,0.3,1.7,1.4,1.9,2.4c0.2,1-0.4,1.6-1.2,1.3
								C90.8,219.6,90,218.6,89.8,217.6z"/>
						</g>
					</g>
				</g>
			</g>
		</g>
		<g>
			<g>
				<g>
					<g>
						<g>
							<path id="XMLID_8_" class="st3" d="M159.3,239.5c-1.4-4,0.4-10.1,4-13.7c3.5-3.5,7.4-3,8.6,1c1.2,3.9-0.5,9.9-3.9,13.3
								C164.5,243.7,160.6,243.5,159.3,239.5z"/>
							<path id="XMLID_7_" class="st3" d="M160.4,235.1c-0.3-0.8,0.1-2.1,0.8-2.8c0.7-0.7,1.5-0.6,1.8,0.2c0.3,0.8-0.1,2.1-0.8,2.8
								C161.5,236,160.7,236,160.4,235.1z"/>
						</g>
						<g>
							<path id="XMLID_6_" class="st3" d="M185.1,213.6c-1.1-4,0.6-9.9,3.9-13.1c3.2-3.2,6.6-2.4,7.6,1.5c1,3.9-0.7,9.6-3.8,12.8
								C189.6,218,186.2,217.5,185.1,213.6z"/>
							<path id="XMLID_5_" class="st3" d="M186.2,209.3c-0.2-0.8,0.1-2,0.8-2.7c0.7-0.7,1.4-0.5,1.6,0.3c0.2,0.8-0.1,2-0.8,2.7
								C187.1,210.3,186.4,210.2,186.2,209.3z"/>
						</g>
						<g>
							<path id="XMLID_4_" class="st3" d="M176.1,181.7c-1.3-4.5,0.6-10.8,4.1-14c3.4-3.1,7.1-2,8.3,2.4c1.1,4.4-0.7,10.4-4,13.6
								C181.1,187,177.3,186.1,176.1,181.7z"/>
							<path id="XMLID_3_" class="st3" d="M177.3,177.2c-0.3-0.9,0.1-2.2,0.8-2.9c0.7-0.7,1.5-0.4,1.7,0.5c0.2,0.9-0.1,2.2-0.8,2.8
								C178.3,178.3,177.5,178.1,177.3,177.2z"/>
						</g>
						<g>
							<path id="XMLID_2_" class="st3" d="M148.2,207.6c-1.5-4.5,0.3-11.1,4.2-14.6c3.8-3.5,8-2.6,9.4,1.9
								c1.4,4.4-0.4,10.7-4.1,14.2C154,212.7,149.8,212.1,148.2,207.6z"/>
							<path id="XMLID_1_" class="st3" d="M149.5,203c-0.3-0.9,0.1-2.3,0.9-3c0.8-0.7,1.7-0.6,2,0.4c0.3,0.9-0.1,2.2-0.9,3
								C150.7,204,149.8,203.9,149.5,203z"/>
						</g>
					</g>
				</g>
			</g>
		</g>
	</g>
</g>
</svg>
