<?xml version="1.0" encoding="utf-8"?>
<!-- Generator: Adobe Illustrator 16.0.0, SVG Export Plug-In . SVG Version: 6.00 Build 0)  -->
<!DOCTYPE svg PUBLIC "-//W3C//DTD SVG 1.1//EN" "http://www.w3.org/Graphics/SVG/1.1/DTD/svg11.dtd">
<svg version="1.1" xmlns="http://www.w3.org/2000/svg" xmlns:xlink="http://www.w3.org/1999/xlink" x="0px" y="0px" width="200px"
	 height="200px" viewBox="0 0 200 200" enable-background="new 0 0 200 200" xml:space="preserve">
<g id="Layer_1">
	<g id="Layer_1_1_">
		<rect fill="#FFFFFF" width="200" height="200"/>
	</g>
</g>
<g id="Layer_2">
	<ellipse opacity="0.2" fill="#8E8E8E" cx="95.75" cy="132.625" rx="70.25" ry="9.625"/>
	<rect x="37.5" y="89.167" fill="#7EA940" width="117.667" height="46.333"/>
	<rect x="43.167" y="95.167" fill="#FFFFFF" width="105.333" height="34"/>
	<rect x="44.125" y="96.125" fill="#7EA940" width="103.375" height="32"/>
	<polygon fill="#7EA940" points="37.5,88 52.167,83.667 139.667,83.667 155.167,88 	"/>
	<polygon fill="#FFFFFF" points="46.75,88 53.5,86.375 137.75,86.375 143.375,88 	"/>
	<polygon fill="#7EA940" points="51.875,82.5 36.25,66.5 157.5,66.5 140,82.5 54.625,82.5 	"/>
	<path fill="#7EA940" d="M36.25,65.75c0,0,0.375-14,14-20.125h94.375c0,0,11.625,4.5,12.875,20.125H36.25z"/>
	<polygon fill="#FFFFFF" points="47.375,70.75 54.625,82.5 137.625,82.5 145.125,70.75 	"/>
	
		<image overflow="visible" width="128" height="128" xlink:href="25180.png"  transform="matrix(0.03 -0.0669 0.0669 0.03 48.8936 108.5693)">
	</image>
	
		<image overflow="visible" width="128" height="128" xlink:href="25180.png"  transform="matrix(0.0897 0.0171 -0.0171 0.0897 68.1738 105.8281)">
	</image>
	
		<image overflow="visible" width="128" height="128" xlink:href="25180.png"  transform="matrix(0.0029 -0.1112 0.1112 0.0029 83.002 112.7559)">
	</image>
	
		<image overflow="visible" width="128" height="128" xlink:href="25180.png"  transform="matrix(0.0329 0.0471 -0.0471 0.0329 91.2148 114.3857)">
	</image>
	
		<image overflow="visible" width="128" height="128" xlink:href="25180.png"  transform="matrix(0.0541 -0.0582 0.0582 0.0541 127.832 117.6914)">
	</image>
	
		<image overflow="visible" width="128" height="128" xlink:href="25180.png"  transform="matrix(0.0538 -0.0225 0.0225 0.0538 117.833 117.499)">
	</image>
	
		<image overflow="visible" width="128" height="128" xlink:href="25180.png"  transform="matrix(0.0743 -0.031 0.031 0.0743 102.708 108.1396)">
	</image>
	
		<image overflow="visible" width="128" height="128" xlink:href="25180.png"  transform="matrix(0.0446 0.0406 -0.0386 0.0424 129.3125 98.8555)">
	</image>
</g>
</svg>
