<?xml version="1.0" encoding="utf-8"?>
<!-- Generator: Adobe Illustrator 16.0.0, SVG Export Plug-In . SVG Version: 6.00 Build 0)  -->
<!DOCTYPE svg PUBLIC "-//W3C//DTD SVG 1.1//EN" "http://www.w3.org/Graphics/SVG/1.1/DTD/svg11.dtd">
<svg version="1.1" xmlns="http://www.w3.org/2000/svg" xmlns:xlink="http://www.w3.org/1999/xlink" x="0px" y="0px" width="200px"
	 height="200px" viewBox="0 0 200 200" enable-background="new 0 0 200 200" xml:space="preserve">
<g id="Layer_1">
	<rect fill="#FFFFFF" width="200" height="200"/>
</g>
<g id="Layer_2">
	<g>
		<g>
			
				<rect x="33.541" y="87.998" transform="matrix(0.6203 -0.7843 0.7843 0.6203 -76.7011 93.1787)" fill="#7EA927" width="48.711" height="75.638"/>
			
				<rect x="38.812" y="94.272" transform="matrix(0.6204 -0.7843 0.7843 0.6204 -76.8154 92.4736)" fill="#FFFFFF" width="36.608" height="62.628"/>
			
				<rect x="45.157" y="101.234" transform="matrix(0.6204 -0.7843 0.7843 0.6204 -77.0009 92.7003)" fill="#7EA927" width="24.204" height="49.315"/>
		</g>
		
			<rect x="58.791" y="78.378" transform="matrix(0.875 -0.4841 0.4841 0.875 -49.6376 45.2542)" opacity="0.4" fill="#648417" width="8.049" height="80.743"/>
		<g>
			
				<rect x="55.423" y="52.218" transform="matrix(0.8955 -0.4451 0.4451 0.8955 -35.7213 49.0469)" fill="#7EA927" width="62.293" height="96.727"/>
			
				<rect x="62.384" y="59.841" transform="matrix(0.8955 -0.4451 0.4451 0.8955 -35.4939 48.6297)" fill="#FFFFFF" width="46.816" height="80.091"/>
			
				<rect x="70.315" y="68.786" transform="matrix(0.8955 -0.4451 0.4451 0.8955 -35.6841 48.6683)" fill="#7EA927" width="30.953" height="63.066"/>
		</g>
		<rect x="86.57" y="44.925" opacity="0.4" fill="#648417" width="16.098" height="105.755"/>
		<g>
			<rect x="89.594" y="26.888" fill="#7EA927" width="84.277" height="130.865"/>
			<rect x="99.54" y="36.833" fill="#FFFFFF" width="63.338" height="108.356"/>
			<rect x="110.009" y="48.873" fill="#7EA927" width="41.877" height="85.324"/>
		</g>
	</g>
</g>
</svg>
