<?xml version="1.0" encoding="utf-8"?>
<!-- Generator: Adobe Illustrator 16.0.0, SVG Export Plug-In . SVG Version: 6.00 Build 0)  -->
<!DOCTYPE svg PUBLIC "-//W3C//DTD SVG 1.1//EN" "http://www.w3.org/Graphics/SVG/1.1/DTD/svg11.dtd">
<svg version="1.1" xmlns="http://www.w3.org/2000/svg" xmlns:xlink="http://www.w3.org/1999/xlink" x="0px" y="0px" width="200px"
	 height="200px" viewBox="0 0 200 200" enable-background="new 0 0 200 200" xml:space="preserve">
<g id="Layer_1">
	<rect fill="#FFFFFF" width="200" height="200"/>
</g>
<g id="Layer_2">
	<ellipse fill="#E8E8E8" cx="105.859" cy="135.753" rx="82.334" ry="21.692"/>
	<g>
		<polygon fill="#7EA927" points="135.038,82.734 77.562,82.734 65.364,46.143 119.513,46.143 		"/>
		<polygon fill="#7EA927" points="77.7,85.506 65.364,123.346 116.208,123.346 134.92,85.506 		"/>
		<polygon fill="#7EA927" points="63.146,48.497 73.958,82.734 63.146,120.02 55.869,85.506 		"/>
		<path fill="#FFFFFF" d="M105.859,61.976c0,2.776-2.234,3.883-4.99,3.883s-4.99-1.106-4.99-3.883c0-2.773,2.234-5.023,4.99-5.023
			S105.859,59.202,105.859,61.976z"/>
		<circle fill="#FFFFFF" cx="88.512" cy="98.396" r="4.297"/>
		<circle fill="#FFFFFF" cx="106.947" cy="114.06" r="3.743"/>
		<circle fill="#FFFFFF" cx="64.792" cy="68.337" r="2.478"/>
		<circle fill="#FFFFFF" cx="65.224" cy="82.595" r="2.91"/>
		<circle fill="#FFFFFF" cx="64.117" cy="98.676" r="1.802"/>
	</g>
	<g>
		<polygon fill="#8E8E8E" points="53.778,74.675 40.276,50.784 54.426,74.298 		"/>
	</g>
	<g>
		<polygon fill="#8E8E8E" points="55.53,67.578 41.939,38.102 56.208,67.256 		"/>
	</g>
	<g>
		<polygon fill="#8E8E8E" points="59.886,52.376 54.102,36.438 60.585,52.104 		"/>
	</g>
</g>
</svg>
