<?xml version="1.0" encoding="utf-8"?>
<!-- Generator: Adobe Illustrator 19.0.0, SVG Export Plug-In . SVG Version: 6.00 Build 0)  -->
<svg version="1.1" id="Layer_1" xmlns="http://www.w3.org/2000/svg" xmlns:xlink="http://www.w3.org/1999/xlink" x="0px" y="0px"
	 viewBox="0 0 400 400" style="enable-background:new 0 0 400 400;" xml:space="preserve">
<style type="text/css">
	.st0{opacity:0.5;fill:url(#XMLID_44_);}
	.st1{fill:#779B3E;}
	.st2{fill:#7EA840;}
	.st3{fill:#FFFFFF;}
	.st4{fill:url(#XMLID_45_);}
	.st5{opacity:0.5;fill:url(#XMLID_46_);}
	.st6{fill:#D0D2D3;}
</style>
<g>
	
		<radialGradient id="XMLID_44_" cx="-42.0922" cy="-273.8338" r="51.3048" gradientTransform="matrix(2.570000e-002 0.6146 -2.7005 0.1129 -595.9459 244.0455)" gradientUnits="userSpaceOnUse">
		<stop  offset="6.451610e-002" style="stop-color:#56585A"/>
		<stop  offset="0.4409" style="stop-color:#BEC0C2"/>
		<stop  offset="0.5001" style="stop-color:#D0D2D3"/>
		<stop  offset="0.5902" style="stop-color:#E5E6E7"/>
		<stop  offset="0.6914" style="stop-color:#F4F4F4"/>
		<stop  offset="0.8116" style="stop-color:#FCFCFD"/>
		<stop  offset="1" style="stop-color:#FFFFFF"/>
	</radialGradient>
	<path id="XMLID_42_" class="st0" d="M143.8,218.8C67.3,222,4.6,210.5,3.9,193.1c-0.7-17.4,60.7-34.1,137.2-37.3
		c76.5-3.2,139.1,8.3,139.9,25.7C281.7,198.9,220.3,215.6,143.8,218.8z"/>
	<g>
		<path id="XMLID_41_" class="st1" d="M80.7,176.2L59,131.3c0,0-3.5-12.4,5.6-18.4c9.1-6.1,43.7-25.6,43.7-25.6s11.4-6.2,25.2-7.7
			c0,0,15.9-2.3,21.5-1.8c5.5,0.5,14.4,3.3,19.3,12.6c4.9,9.3,18.6,44.7,18.6,44.7s7.8,21.5-1.2,29.3c-9,7.8-43.3,27.7-43.3,27.7
			s-12.6,9.3-31.8,5.1C97.3,192.9,91.5,190.6,80.7,176.2z"/>
		<path id="XMLID_40_" class="st2" d="M114,112.9l40.9-25.6c0,0,10.8-5.4,17.1,5.7c6.3,11.1,19.6,45,19.6,45s4,18.2-4.3,24.7
			c-8.3,6.5-37.3,26.2-37.3,26.2s-11.6,6.9-18.7-7.2c-7.1-14-23.2-49.6-23.2-49.6S103.1,119.7,114,112.9z"/>
		<path id="XMLID_39_" class="st2" d="M76.6,122c0,0,19.1-3.3,30.4,18.5c11.3,21.9,20.1,41.2,20.1,41.2s8.1,17.2-5.1,16.3
			c-13.1-0.8-26.7-5.6-32.6-11.8c-5.8-6.2-8.9-10.1-11.5-15.5c-2.6-5.4-16.3-37.4-16.3-37.4S55.9,120.7,76.6,122z"/>
		<path id="XMLID_38_" class="st2" d="M126.1,101l26-15.1c0,0,12.4-7.1-2-6.9c-14.4,0.2-27.6,2.4-31.5,3.8
			c-3.9,1.4-11.5,4.9-15.3,7.1c-3.8,2.2-35.8,20.9-35.8,20.9s-9.6,7.7,6.3,7.2c15.9-0.5,27-1.1,43.4-11.4L126.1,101z"/>
		
			<ellipse id="XMLID_37_" transform="matrix(0.8567 -0.5158 0.5158 0.8567 -59.4243 70.2943)" class="st3" cx="96.8" cy="142.1" rx="4.1" ry="8.9"/>
		
			<ellipse id="XMLID_36_" transform="matrix(0.8567 -0.5158 0.5158 0.8567 -76.0285 72.1366)" class="st3" cx="91.8" cy="172.9" rx="4.1" ry="8.9"/>
		<ellipse id="XMLID_35_" class="st3" cx="130.5" cy="129.9" rx="7.4" ry="9.1"/>
		<ellipse id="XMLID_34_" class="st3" cx="159.6" cy="110.8" rx="7.4" ry="9.1"/>
		<ellipse id="XMLID_33_" class="st3" cx="138.5" cy="147.4" rx="7.4" ry="9.1"/>
		<ellipse id="XMLID_32_" class="st3" cx="167.1" cy="128.1" rx="7.4" ry="9.1"/>
		<ellipse id="XMLID_31_" class="st3" cx="175.1" cy="145.6" rx="7.4" ry="9.1"/>
		<ellipse id="XMLID_30_" class="st3" cx="146.5" cy="165" rx="7.4" ry="9.1"/>
		
			<ellipse id="XMLID_29_" transform="matrix(0.9012 -0.4335 0.4335 0.9012 -25.4486 67.065)" class="st3" cx="134.4" cy="89.3" rx="9.2" ry="1.9"/>
		
			<ellipse id="XMLID_28_" transform="matrix(0.9012 -0.4335 0.4335 0.9012 -36.0087 56.4043)" class="st3" cx="105.7" cy="107.2" rx="9.2" ry="1.9"/>
		
			<ellipse id="XMLID_27_" transform="matrix(0.9012 -0.4335 0.4335 0.9012 -38.4552 47.3796)" class="st3" cx="84.7" cy="108" rx="9.2" ry="1.9"/>
		
			<ellipse id="XMLID_26_" transform="matrix(0.9012 -0.4335 0.4335 0.9012 -28.202 57.8364)" class="st3" cx="112.7" cy="90.8" rx="9.2" ry="1.9"/>
	</g>
	
		<radialGradient id="XMLID_45_" cx="912.7997" cy="-50.284" r="37.7484" gradientTransform="matrix(0.5627 0.2484 -0.5002 1.1332 -361.876 -7.1347)" gradientUnits="userSpaceOnUse">
		<stop  offset="6.451610e-002" style="stop-color:#56585A"/>
		<stop  offset="0.4409" style="stop-color:#BEC0C2"/>
		<stop  offset="0.5001" style="stop-color:#D0D2D3"/>
		<stop  offset="0.5902" style="stop-color:#E5E6E7"/>
		<stop  offset="0.6914" style="stop-color:#F4F4F4"/>
		<stop  offset="0.8116" style="stop-color:#FCFCFD"/>
		<stop  offset="1" style="stop-color:#FFFFFF"/>
	</radialGradient>
	<path id="XMLID_25_" class="st4" d="M198.2,172c-10.4,23.6-28.4,38.6-40.1,33.4c-11.7-5.2-12.8-28.5-2.4-52.2
		c10.4-23.6,28.4-38.6,40.1-33.4C207.6,125.1,208.6,148.4,198.2,172z"/>
	
		<radialGradient id="XMLID_46_" cx="132.9555" cy="-314.7818" r="51.3048" gradientTransform="matrix(2.570000e-002 0.6146 -2.7005 0.1129 -595.9459 244.0455)" gradientUnits="userSpaceOnUse">
		<stop  offset="6.451610e-002" style="stop-color:#56585A"/>
		<stop  offset="0.4409" style="stop-color:#BEC0C2"/>
		<stop  offset="0.5001" style="stop-color:#D0D2D3"/>
		<stop  offset="0.5902" style="stop-color:#E5E6E7"/>
		<stop  offset="0.6914" style="stop-color:#F4F4F4"/>
		<stop  offset="0.8116" style="stop-color:#FCFCFD"/>
		<stop  offset="1" style="stop-color:#FFFFFF"/>
	</radialGradient>
	<path id="XMLID_24_" class="st5" d="M258.9,321.8C182.3,325,119.7,313.4,119,296c-0.7-17.4,60.7-34.1,137.2-37.3
		c76.5-3.2,139.1,8.3,139.9,25.7C396.8,301.8,335.4,318.6,258.9,321.8z"/>
	<path id="XMLID_23_" class="st1" d="M209.6,121l64.4,12.6c0,0,22.7,5,34.8,28.3c12.1,23.2,12.1,38.4,7.6,54.5
		c-4.5,16.2-22.2,59.3-22.2,59.3s-7.6,21.5-31,15.4l-60.8-15.4c0,0-18.4-5.8-29-17.7c-10.6-11.9-18.2-22.7-18.2-22.7
		s-9.6-16.7-2.3-35.3c7.3-18.7,26.8-63.6,26.8-63.6S190,118.4,209.6,121z"/>
	<path id="XMLID_22_" class="st2" d="M211.2,124.7l61.1,12.1c0,0,18.7,4,11.9,23.7c-6.8,19.7-24,62.6-24,62.6s-8.3,19.7-28.8,14.9
		c-20.4-4.8-65.6-15.4-65.6-15.4s-15.6-5.8-9.3-22c6.3-16.2,25.5-60.6,25.5-60.6S189.5,122.5,211.2,124.7z"/>
	
		<ellipse id="XMLID_21_" transform="matrix(0.4725 0.8813 -0.8813 0.4725 242.1804 -100.8733)" class="st3" cx="205.4" cy="151.9" rx="10.2" ry="12.7"/>
	
		<ellipse id="XMLID_20_" transform="matrix(0.4725 0.8813 -0.8813 0.4725 274.3896 -99.4205)" class="st3" cx="220.3" cy="179.5" rx="10.2" ry="12.7"/>
	
		<ellipse id="XMLID_19_" transform="matrix(0.4725 0.8813 -0.8813 0.4725 272.5764 -61.1371)" class="st3" cx="187.4" cy="197.1" rx="10.2" ry="12.7"/>
	
		<ellipse id="XMLID_18_" transform="matrix(0.4725 0.8813 -0.8813 0.4725 276.1157 -138.0996)" class="st3" cx="253.4" cy="161.6" rx="10.8" ry="13.4"/>
	
		<ellipse id="XMLID_17_" transform="matrix(0.4725 0.8813 -0.8813 0.4725 307.0313 -97.1377)" class="st3" cx="234.7" cy="207.9" rx="10.8" ry="13.4"/>
	<path id="XMLID_16_" class="st2" d="M277.2,193.5l11.9-31.9c0,0,6-15.4,15.5-1.7c9.6,13.7,15,29.7,12.7,42.8
		c-2.3,13.1-7,24.2-7,24.2l-17.8,48.3c0,0-5.3,12.3-15.3,0.8c-10-11.5-18.9-33.1-13.3-48.8C269.7,211.4,277.2,193.5,277.2,193.5z"/>
	<path id="XMLID_15_" class="st2" d="M199.5,235.8l31.3,7.8c0,0,23,6.8,34.1,23.7c11.1,16.9,8.3,24,1.4,22.7
		c-6.9-1.3-63.5-15.9-63.5-15.9s-16.7-5.6-27.7-18.2c-11-12.6-16-20.2-16-20.2s-5-9.6,8.3-7.3C180.9,230.8,199.5,235.8,199.5,235.8z
		"/>
	
		<ellipse id="XMLID_14_" transform="matrix(0.9779 0.2093 -0.2093 0.9779 52.333 -56.0158)" class="st3" cx="290.9" cy="219.3" rx="4.4" ry="12"/>
	
		<ellipse id="XMLID_13_" transform="matrix(0.9239 0.3827 -0.3827 0.9239 114.8973 -69.7737)" class="st3" cx="232.9" cy="254" rx="11.8" ry="3.5"/>
	
		<ellipse id="XMLID_12_" transform="matrix(0.9239 0.3827 -0.3827 0.9239 115.6787 -63.2184)" class="st3" cx="216.8" cy="259.2" rx="11.8" ry="3.5"/>
	
		<ellipse id="XMLID_11_" transform="matrix(0.9239 0.3827 -0.3827 0.9239 116.6681 -57.1348)" class="st3" cx="202" cy="264.7" rx="11.8" ry="3.5"/>
	<path id="XMLID_10_" class="st2" d="M214.3,143.2c0,0-6.8-4.1-15.5,0.9c-8.8,5-5.8,16.8,1.9,18.3c0,0-8.8,0.5-9.1-9.3
		C191.3,143.4,206.6,136.4,214.3,143.2z"/>
	<path id="XMLID_9_" class="st6" d="M201,162.3c0,0-7-5.5-4.2-12c3.2-7.6,14.5-8.2,14.5-8.2s-8.1-3.1-15.1,4.1
		C189.2,153.4,194.3,162.7,201,162.3z"/>
	<path id="XMLID_8_" class="st2" d="M263.1,152.6c0,0-6.8-4.3-15.7,0.9c-8.9,5.3-5.9,17.8,2,19.4c0,0-8.9,0.5-9.2-9.8
		C239.9,152.7,255.4,145.3,263.1,152.6z"/>
	<path id="XMLID_7_" class="st6" d="M249.6,172.8c0,0-7.1-5.8-4.3-12.8c3.2-8.1,14.7-8.7,14.7-8.7s-8.2-3.3-15.2,4.3
		C237.8,163.3,242.9,173.1,249.6,172.8z"/>
	<path id="XMLID_6_" class="st2" d="M230.7,172.1c0,0-6.4-4.7-15.7-0.7c-9.3,4.1-7.5,16.3,0.2,18.6c0,0-8.9-0.4-8.2-10.2
		C207.6,170.1,223.6,164.5,230.7,172.1z"/>
	<path id="XMLID_5_" class="st6" d="M215.4,190c0,0-6.5-6.2-3.1-12.5c4-7.3,15.4-6.8,15.4-6.8s-7.9-3.9-15.6,2.6
		C204.5,179.8,208.7,189.7,215.4,190z"/>
	<path id="XMLID_4_" class="st2" d="M198,189.8c0,0-6.4-4.7-15.7-0.7c-9.3,4.1-7.5,16.3,0.2,18.6c0,0-8.9-0.4-8.2-10.2
		C174.9,187.7,190.9,182.2,198,189.8z"/>
	<path id="XMLID_3_" class="st6" d="M182.7,207.6c0,0-6.5-6.2-3.1-12.5c4-7.3,15.4-6.8,15.4-6.8s-7.9-3.9-15.6,2.6
		C171.8,197.5,176,207.3,182.7,207.6z"/>
	<path id="XMLID_2_" class="st2" d="M245.1,199.6c0,0-6.4-5.1-15.7-0.6c-9.4,4.5-7.6,17.7,0,20.1c0,0-8.9-0.3-8.1-10.9
		C222,197.6,238.1,191.4,245.1,199.6z"/>
	<path id="XMLID_1_" class="st6" d="M229.6,219c0,0-6.4-6.7-3-13.5c4-8,15.5-7.5,15.5-7.5s-7.9-4.2-15.6,3
		C218.8,208.2,222.9,218.7,229.6,219z"/>
</g>
</svg>
