<?xml version="1.0" encoding="utf-8"?>
<!-- Generator: Adobe Illustrator 16.0.0, SVG Export Plug-In . SVG Version: 6.00 Build 0)  -->
<!DOCTYPE svg PUBLIC "-//W3C//DTD SVG 1.1//EN" "http://www.w3.org/Graphics/SVG/1.1/DTD/svg11.dtd">
<svg version="1.1" id="Layer_1" xmlns="http://www.w3.org/2000/svg" xmlns:xlink="http://www.w3.org/1999/xlink" x="0px" y="0px"
	 width="600px" height="599.999px" viewBox="0 0 600 599.999" enable-background="new 0 0 600 599.999" xml:space="preserve">
<circle fill="#586A91" cx="300" cy="300" r="300"/>
<circle fill="#697CA1" cx="300" cy="299.999" r="282.54"/>
<g>
	<path fill="#FFFFFF" d="M201.545,275.87H186.85v-13.892h43.136v13.892h-14.622v77.718h-13.818V275.87z"/>
	<path fill="#FFFFFF" d="M246.27,332.531l-3.357,21.057h-14.388l15.574-91.609h19.008l15.352,91.609H263.93l-3.234-21.057H246.27z
		 M253.528,282.962l-5.118,36.117h10.235L253.528,282.962z"/>
	<path fill="#FFFFFF" d="M303.9,353.588h-13.818v-91.609H303.9V353.588z"/>
	<path fill="#FFFFFF" d="M353.909,353.588h-37.653v-91.609h13.818v77.864h23.835V353.588z"/>
	<path fill="#FFFFFF" d="M407.352,330.777c0.097,6.386-1.561,11.844-4.972,16.377c-2.242,3.07-5.41,5.24-9.505,6.507
		c-2.193,0.682-4.752,1.023-7.677,1.023c-5.41,0-9.895-1.34-13.452-4.021c-2.974-2.193-5.326-5.178-7.056-8.956
		c-1.73-3.776-2.741-8.103-3.034-12.978l13.16-0.95c0.585,5.341,1.998,9.211,4.241,11.611c1.656,1.813,3.557,2.671,5.702,2.572
		c3.021-0.097,5.435-1.585,7.238-4.464c0.925-1.415,1.389-3.438,1.389-6.073c0-3.805-1.73-7.587-5.19-11.343
		c-2.73-2.585-6.824-6.463-12.283-11.635c-4.582-4.439-7.822-8.416-9.724-11.929c-2.047-3.952-3.07-8.245-3.07-12.879
		c0-8.342,2.802-14.66,8.407-18.953c3.461-2.585,7.75-3.878,12.868-3.878c4.922,0,9.139,1.097,12.648,3.29
		c2.729,1.707,4.935,4.094,6.616,7.165c1.682,3.071,2.692,6.605,3.034,10.602l-13.233,2.413c-0.391-3.753-1.462-6.677-3.217-8.773
		c-1.268-1.51-3.096-2.267-5.483-2.267c-2.535,0-4.46,1.122-5.775,3.363c-1.073,1.804-1.608,4.046-1.608,6.726
		c0,4.193,1.803,8.457,5.41,12.795c1.363,1.657,3.411,3.607,6.142,5.849c3.217,2.681,5.337,4.558,6.36,5.63
		c3.411,3.412,6.043,6.775,7.896,10.09c0.877,1.56,1.583,2.997,2.12,4.313C406.621,325.27,407.303,328.194,407.352,330.777z"/>
</g>
</svg>
