<?xml version="1.0" encoding="utf-8"?>
<!-- Generator: Adobe Illustrator 16.0.0, SVG Export Plug-In . SVG Version: 6.00 Build 0)  -->
<!DOCTYPE svg PUBLIC "-//W3C//DTD SVG 1.1//EN" "http://www.w3.org/Graphics/SVG/1.1/DTD/svg11.dtd">
<svg version="1.1" xmlns="http://www.w3.org/2000/svg" xmlns:xlink="http://www.w3.org/1999/xlink" x="0px" y="0px" width="200px"
	 height="200px" viewBox="0 0 200 200" enable-background="new 0 0 200 200" xml:space="preserve">
<g id="Layer_1">
	<rect fill="#FFFFFF" width="200" height="200"/>
</g>
<g id="Layer_2">
	<ellipse fill="#D3D3D3" cx="96.333" cy="146" rx="64.5" ry="4"/>
	<g>
		<rect x="52.833" y="59.5" fill="#7EA927" width="87" height="87"/>
		<circle fill="#FFFFFF" cx="76" cy="78.5" r="6.5"/>
		<circle fill="#FFFFFF" cx="113.333" cy="78.5" r="6.5"/>
		<circle fill="#FFFFFF" cx="76" cy="104.5" r="6.5"/>
		<circle fill="#FFFFFF" cx="113.333" cy="104.5" r="6.5"/>
		<circle fill="#FFFFFF" cx="76" cy="130.667" r="6.5"/>
		<circle fill="#FFFFFF" cx="113.333" cy="130.667" r="6.5"/>
	</g>
	<polygon fill="#BCDD6C" points="34,52.833 34,78.5 46.333,78.5 46.333,52.833 58,52.833 40.5,26.833 23,52.667 	"/>
	<polygon fill="#D36666" points="144.001,156.334 144.001,130.667 156.334,130.667 156.334,156.334 168.001,156.334 
		150.501,182.334 133.001,156.5 	"/>
</g>
</svg>
